<svg width="300" height="112" viewBox="0 0 300 112" fill="none" xmlns="http://www.w3.org/2000/svg">
<path d="M58.9188 96.803C36.2816 96.803 17.9304 78.4518 17.9304 55.8146C17.9304 33.1773 36.2816 14.8262 58.9188 14.8262C81.5561 14.8262 99.9072 33.1773 99.9072 55.8146C99.9072 78.4518 81.5561 96.803 58.9188 96.803Z" stroke="black" stroke-width="16.7442"/>
<path d="M33.9766 19.709V92.2671" stroke="black" stroke-width="16.7442"/>
<path d="M163.705 91.4761V73.8947H170.285C171.776 73.8947 173.056 74.1375 174.128 74.623C175.2 75.0919 176.02 75.7784 176.59 76.6826C177.176 77.57 177.469 78.65 177.469 79.9226C177.469 81.1616 177.176 82.2333 176.59 83.1375C176.02 84.0249 175.2 84.7114 174.128 85.197C173.056 85.6826 171.776 85.9254 170.285 85.9254H164.735L165.563 85.0463V91.4761H163.705ZM165.563 85.197L164.735 84.2928H170.235C171.993 84.2928 173.324 83.9161 174.229 83.1626C175.15 82.3923 175.61 81.3123 175.61 79.9226C175.61 78.5161 175.15 77.4277 174.229 76.6575C173.324 75.8872 171.993 75.5021 170.235 75.5021H164.735L165.563 74.623V85.197ZM180.792 91.4761V78.29H182.5V81.8816L182.324 81.2537C182.692 80.2491 183.312 79.4872 184.182 78.9682C185.053 78.4323 186.133 78.1644 187.422 78.1644V79.8975C187.355 79.8975 187.289 79.8975 187.222 79.8975C187.155 79.8807 187.088 79.8723 187.021 79.8723C185.631 79.8723 184.542 80.2993 183.755 81.1533C182.969 81.9905 182.575 83.1877 182.575 84.7449V91.4761H180.792ZM195.929 91.6016C194.656 91.6016 193.509 91.317 192.488 90.7477C191.483 90.1616 190.688 89.3663 190.102 88.3616C189.516 87.3402 189.223 86.1765 189.223 84.8705C189.223 83.5477 189.516 82.384 190.102 81.3793C190.688 80.3747 191.483 79.5877 192.488 79.0184C193.492 78.4491 194.639 78.1644 195.929 78.1644C197.235 78.1644 198.39 78.4491 199.395 79.0184C200.416 79.5877 201.211 80.3747 201.781 81.3793C202.367 82.384 202.66 83.5477 202.66 84.8705C202.66 86.1765 202.367 87.3402 201.781 88.3616C201.211 89.3663 200.416 90.1616 199.395 90.7477C198.373 91.317 197.218 91.6016 195.929 91.6016ZM195.929 90.0193C196.883 90.0193 197.729 89.81 198.465 89.3914C199.202 88.9561 199.78 88.3533 200.198 87.583C200.634 86.7961 200.851 85.8919 200.851 84.8705C200.851 83.8323 200.634 82.9282 200.198 82.1579C199.78 81.3877 199.202 80.7933 198.465 80.3747C197.729 79.9393 196.891 79.7216 195.954 79.7216C195.016 79.7216 194.179 79.9393 193.442 80.3747C192.705 80.7933 192.119 81.3877 191.684 82.1579C191.249 82.9282 191.031 83.8323 191.031 84.8705C191.031 85.8919 191.249 86.7961 191.684 87.583C192.119 88.3533 192.705 88.9561 193.442 89.3914C194.179 89.81 195.008 90.0193 195.929 90.0193ZM204.341 96.4742C203.806 96.4742 203.295 96.3989 202.809 96.2482C202.307 96.1142 201.888 95.9049 201.554 95.6202L202.181 94.264C202.717 94.7161 203.404 94.9421 204.241 94.9421C204.944 94.9421 205.48 94.7328 205.848 94.3142C206.234 93.8956 206.426 93.2761 206.426 92.4556V78.29H208.209V92.4556C208.209 93.6779 207.874 94.6491 207.205 95.3691C206.552 96.1058 205.597 96.4742 204.341 96.4742ZM207.33 75.3765C206.962 75.3765 206.652 75.2509 206.401 74.9998C206.15 74.7486 206.024 74.4472 206.024 74.0956C206.024 73.744 206.15 73.4509 206.401 73.2165C206.652 72.9654 206.962 72.8398 207.33 72.8398C207.699 72.8398 208.008 72.957 208.26 73.1914C208.511 73.4258 208.636 73.7189 208.636 74.0705C208.636 74.4389 208.511 74.7486 208.26 74.9998C208.025 75.2509 207.715 75.3765 207.33 75.3765ZM218.794 91.6016C217.421 91.6016 216.215 91.317 215.177 90.7477C214.139 90.1616 213.327 89.3663 212.741 88.3616C212.155 87.3402 211.862 86.1765 211.862 84.8705C211.862 83.5644 212.138 82.4091 212.69 81.4044C213.26 80.3998 214.03 79.6128 215.001 79.0435C215.989 78.4575 217.094 78.1644 218.316 78.1644C219.556 78.1644 220.652 78.4491 221.607 79.0184C222.578 79.5709 223.34 80.3579 223.892 81.3793C224.445 82.384 224.721 83.5477 224.721 84.8705C224.721 84.9542 224.713 85.0463 224.696 85.1468C224.696 85.2305 224.696 85.3226 224.696 85.423H213.218V84.0919H223.742L223.038 84.6193C223.038 83.6649 222.829 82.8193 222.41 82.0826C222.009 81.3291 221.456 80.743 220.753 80.3244C220.049 79.9058 219.237 79.6965 218.316 79.6965C217.412 79.6965 216.6 79.9058 215.88 80.3244C215.16 80.743 214.599 81.3291 214.197 82.0826C213.796 82.8361 213.595 83.6984 213.595 84.6696V84.9458C213.595 85.9505 213.812 86.8379 214.248 87.6082C214.7 88.3616 215.319 88.9561 216.106 89.3914C216.91 89.81 217.823 90.0193 218.844 90.0193C219.648 90.0193 220.393 89.877 221.079 89.5923C221.783 89.3077 222.385 88.8723 222.888 88.2863L223.892 89.4416C223.306 90.1449 222.569 90.6807 221.682 91.0491C220.811 91.4175 219.849 91.6016 218.794 91.6016ZM233.826 91.6016C232.52 91.6016 231.348 91.317 230.31 90.7477C229.288 90.1616 228.485 89.3663 227.899 88.3616C227.313 87.3402 227.02 86.1765 227.02 84.8705C227.02 83.5477 227.313 82.384 227.899 81.3793C228.485 80.3747 229.288 79.5877 230.31 79.0184C231.348 78.4491 232.52 78.1644 233.826 78.1644C234.948 78.1644 235.961 78.3821 236.865 78.8175C237.769 79.2528 238.481 79.9058 239 80.7765L237.669 81.6807C237.217 81.0109 236.656 80.517 235.986 80.1989C235.316 79.8807 234.588 79.7216 233.801 79.7216C232.863 79.7216 232.018 79.9393 231.264 80.3747C230.511 80.7933 229.916 81.3877 229.481 82.1579C229.046 82.9282 228.828 83.8323 228.828 84.8705C228.828 85.9086 229.046 86.8128 229.481 87.583C229.916 88.3533 230.511 88.9561 231.264 89.3914C232.018 89.81 232.863 90.0193 233.801 90.0193C234.588 90.0193 235.316 89.8602 235.986 89.5421C236.656 89.224 237.217 88.7384 237.669 88.0854L239 88.9896C238.481 89.8435 237.769 90.4965 236.865 90.9486C235.961 91.384 234.948 91.6016 233.826 91.6016ZM246.82 91.6016C245.581 91.6016 244.626 91.2668 243.956 90.597C243.287 89.9272 242.952 88.9812 242.952 87.7589V75.3765H244.735V87.6584C244.735 88.4286 244.928 89.023 245.313 89.4416C245.715 89.8602 246.284 90.0696 247.021 90.0696C247.808 90.0696 248.461 89.8435 248.98 89.3914L249.608 90.6723C249.256 90.9905 248.829 91.2249 248.327 91.3756C247.841 91.5263 247.339 91.6016 246.82 91.6016ZM240.591 79.7719V78.29H248.754V79.7719H240.591Z" fill="black"/>
<path d="M139.531 60.719C136.906 60.719 134.471 60.292 132.225 59.4381C130.011 58.5841 128.082 57.3822 126.437 55.8325C124.824 54.2827 123.559 52.4641 122.642 50.3767C121.756 48.2892 121.313 46.012 121.313 43.545C121.313 41.0781 121.756 38.8009 122.642 36.7134C123.559 34.626 124.84 32.8074 126.485 31.2576C128.129 29.7078 130.058 28.506 132.272 27.652C134.486 26.7981 136.89 26.3711 139.484 26.3711C142.109 26.3711 144.512 26.7981 146.695 27.652C148.909 28.506 150.822 29.7078 152.435 31.2576C154.08 32.8074 155.361 34.626 156.278 36.7134C157.195 38.7692 157.654 41.0464 157.654 43.545C157.654 46.012 157.195 48.305 156.278 50.4241C155.361 52.5116 154.08 54.3302 152.435 55.8799C150.822 57.3981 148.909 58.5841 146.695 59.4381C144.512 60.292 142.125 60.719 139.531 60.719ZM139.484 54.172C140.97 54.172 142.33 53.919 143.564 53.4129C144.829 52.9069 145.936 52.1795 146.885 51.2306C147.833 50.2818 148.561 49.159 149.067 47.8622C149.605 46.5655 149.873 45.1264 149.873 43.545C149.873 41.9636 149.605 40.5246 149.067 39.2278C148.561 37.9311 147.833 36.8083 146.885 35.8595C145.967 34.9106 144.876 34.1832 143.611 33.6771C142.346 33.1711 140.97 32.9181 139.484 32.9181C137.997 32.9181 136.621 33.1711 135.356 33.6771C134.123 34.1832 133.032 34.9106 132.083 35.8595C131.134 36.8083 130.391 37.9311 129.853 39.2278C129.347 40.5246 129.094 41.9636 129.094 43.545C129.094 45.0948 129.347 46.5339 129.853 47.8622C130.391 49.159 131.118 50.2818 132.035 51.2306C132.984 52.1795 134.091 52.9069 135.356 53.4129C136.621 53.919 137.997 54.172 139.484 54.172ZM170.335 60.1497L159.47 26.9404H167.441L176.882 56.3543H172.896L182.764 26.9404H189.881L199.369 56.3543H195.526L205.204 26.9404H212.558L201.694 60.1497H193.439L185.042 34.3413H187.224L178.589 60.1497H170.335ZM216.848 60.1497V26.9404H223.206L242.799 50.8511H239.715V26.9404H247.306V60.1497H240.996L221.355 36.239H224.439V60.1497H216.848ZM255.163 60.1497V26.9404H270.25C273.855 26.9404 277.034 27.6362 279.786 29.0278C282.537 30.3878 284.688 32.3013 286.238 34.7683C287.787 37.2353 288.562 40.1609 288.562 43.545C288.562 46.8976 287.787 49.8232 286.238 52.3218C284.688 54.7888 282.537 56.7181 279.786 58.1097C277.034 59.4697 273.855 60.1497 270.25 60.1497H255.163ZM262.849 53.8399H269.87C272.084 53.8399 273.998 53.4288 275.611 52.6064C277.255 51.7525 278.52 50.5506 279.406 49.0009C280.323 47.4511 280.782 45.6325 280.782 43.545C280.782 41.426 280.323 39.6074 279.406 38.0892C278.52 36.5395 277.255 35.3534 275.611 34.5311C273.998 33.6771 272.084 33.2502 269.87 33.2502H262.849V53.8399Z" fill="black"/>
</svg>
